<svg xmlns="http://www.w3.org/2000/svg" viewBox="0 0 430 96"><path fill="#e68134" d="M48.2,0a48,48,0,1,0,48,48A48,48,0,0,0,48.2,0ZM264.3,23a10.48,10.48,0,0,0-8.1-3.4,10,10,0,0,0-7.5,3.2c-2,2.1-3,5.1-3,8.8a12.68,12.68,0,0,0,2.3,7.8c1.9,2.6,4.9,3.9,8.9,3.9a11.38,11.38,0,0,0,6.3-1.7,10,10,0,0,0,3.7-5l-6-1a4.44,4.44,0,0,1-1.5,2.5,3.65,3.65,0,0,1-2.4.8,4.54,4.54,0,0,1-3.5-1.5,6.64,6.64,0,0,1-1.5-4.2h15.2C267.3,28.6,266.3,25.2,264.3,23Zm-12.2,6.6a5.58,5.58,0,0,1,1.3-3.9,4.18,4.18,0,0,1,3.3-1.4,4.48,4.48,0,0,1,3.2,1.4,5.83,5.83,0,0,1,1.4,4h-9.2Zm-84.3-7.4a7,7,0,0,0-2.5-1.8,8.73,8.73,0,0,0-3.7-.7,9.3,9.3,0,0,0-7.6,3.9V20.3h-5.6V43h6.1V32.6a19.21,19.21,0,0,1,.5-5.2,4.81,4.81,0,0,1,1.7-2.3,4.68,4.68,0,0,1,2.8-.9,3.44,3.44,0,0,1,3.4,2.3,15.66,15.66,0,0,1,.4,4.7V42.8h6.1v-14a19.61,19.61,0,0,0-.3-4A7.07,7.07,0,0,0,167.8,22.2ZM145,11.5h-8.6L123.5,25.4V11.5h-6.4V42.9h6.4V33.4l5.2-5.2,8.7,14.7h8.3L133.1,23.8Zm40.5,8.1a12.53,12.53,0,0,0-6.1,1.5,10.25,10.25,0,0,0-4.2,4.3,12.23,12.23,0,0,0-1.5,5.8,14.1,14.1,0,0,0,1.5,6.7,9.49,9.49,0,0,0,4.3,4.1,13.9,13.9,0,0,0,6,1.4,11.08,11.08,0,0,0,8.4-3.4,11.92,11.92,0,0,0,3.4-8.6A11.38,11.38,0,0,0,194,23,11.53,11.53,0,0,0,185.5,19.6Zm4,17.1a5.34,5.34,0,0,1-8,0,7.37,7.37,0,0,1-1.6-5.2,7.37,7.37,0,0,1,1.6-5.2,5.34,5.34,0,0,1,8,0,7.26,7.26,0,0,1,1.6,5.1C191.1,33.8,190.6,35.5,189.5,36.7Zm33-1.7-3.8-14.9h-5.9l-4,14.9-4.3-14.9h-5.9l7.3,22.7h5.9l3.9-14.6,4,14.6h5.8l7.4-22.7h-6Zm13.2,7.9h6.1V11.5h-6.1ZM341.7,23a10.48,10.48,0,0,0-8.1-3.4,10,10,0,0,0-7.5,3.2c-2,2.1-3,5.1-3,8.8a12.68,12.68,0,0,0,2.3,7.8c1.9,2.6,4.9,3.9,8.9,3.9a11.38,11.38,0,0,0,6.3-1.7,10,10,0,0,0,3.7-5l-6-1a4.44,4.44,0,0,1-1.5,2.5,3.85,3.85,0,0,1-2.4.8,4.54,4.54,0,0,1-3.5-1.5,6.64,6.64,0,0,1-1.5-4.2h15.2C344.6,28.6,343.7,25.2,341.7,23Zm-12.3,6.6a5.58,5.58,0,0,1,1.3-3.9,4.18,4.18,0,0,1,3.3-1.4,4.48,4.48,0,0,1,3.2,1.4,5.83,5.83,0,0,1,1.4,4h-9.2Zm-42.7-6.8a8.77,8.77,0,0,0-6.7-3.2,8.87,8.87,0,0,0-6.9,3c-1.8,2-2.7,4.9-2.7,8.8s.9,6.7,2.8,8.8a8.72,8.72,0,0,0,6.8,3.1,8.49,8.49,0,0,0,3.8-.9,8.29,8.29,0,0,0,3.3-2.9v3.3h5.6V11.5h-6.1V22.8Zm-1.5,14.1a4.61,4.61,0,0,1-7.7-.6c-.7-1.1-1-2.8-1-5.3a8.16,8.16,0,0,1,1.4-5.1,4.75,4.75,0,0,1,3.6-1.7,4.46,4.46,0,0,1,3.6,1.7c1,1.1,1.4,3,1.4,5.6A7.28,7.28,0,0,1,285.2,36.9Zm130.6-.6-5.5-16.1h-6.5L412.5,43a8.24,8.24,0,0,1-1.6,3.1,3.85,3.85,0,0,1-3.1,1.2,13,13,0,0,1-2.6-.3l.5,4.7a19.7,19.7,0,0,0,3.4.4,9.72,9.72,0,0,0,3.1-.4,7,7,0,0,0,2.3-1,6.85,6.85,0,0,0,1.7-1.7,13.83,13.83,0,0,0,1.5-3l1.4-4,8.1-21.9h-6.3ZM440.1,18c-.5-.8-.9-1.4-.9-1.4a.77.77,0,0,0,.3-.1,2,2,0,0,0,1.7-1.5,3.3,3.3,0,0,0,0-1.4,2.05,2.05,0,0,0-1.8-1.5,7.67,7.67,0,0,0-2.3-.1h-1.9v8.1h1.3V16.7h1.2l.5.9a15.05,15.05,0,0,1,1,1.7l.5.8h1.6l-.2-.3A16.18,16.18,0,0,0,440.1,18Zm-2.4-2.4h-1.1V13.2h1.2c1,0,1.2,0,1.4.1a1,1,0,0,1,.7.5.75.75,0,0,1,.1.5c0,.4,0,.5-.2.7s-.4.3-.7.4S438.7,15.6,437.7,15.6Zm7.5-.6a7,7,0,0,0-3.9-5.5,7.62,7.62,0,0,0-2-.6c-.3,0-1.1-.1-1.3-.1h-.3a8.06,8.06,0,0,0-4.3,1.6,7,7,0,0,0-2.5,4.2,7.55,7.55,0,0,0,.6,4.7,6.77,6.77,0,0,0,5.6,3.8,13.35,13.35,0,0,0,2,0,7.53,7.53,0,0,0,4.4-2.3,6.31,6.31,0,0,0,1.7-3.9Zm-1.9,3.2a7.14,7.14,0,0,1-.8,1.5,5.65,5.65,0,0,1-2.1,1.7,5.1,5.1,0,0,1-2.5.5,5.23,5.23,0,0,1-4.4-2.1,6,6,0,0,1-1.2-3.8,9.91,9.91,0,0,1,.2-1.8,5.53,5.53,0,0,1,5-4.2h1a5.23,5.23,0,0,1,2.7,1,5.6,5.6,0,0,1,1.6,1.8A6.73,6.73,0,0,1,443.3,18.2ZM400.5,38.4a1.69,1.69,0,0,1-1-.3c-.3-.2-.5-.4-.5-.7a21.3,21.3,0,0,1-.1-3.3V25H403V20.2h-4.1v-8l-6.1,3.5v4.5H390V25h2.8v9.9a33.25,33.25,0,0,0,.2,4.2,6.75,6.75,0,0,0,.8,2.4,4.72,4.72,0,0,0,1.9,1.4,7.29,7.29,0,0,0,3,.5,12.09,12.09,0,0,0,4.8-.9l-.5-4.7A8.56,8.56,0,0,1,400.5,38.4ZM313.6,23.3a8.3,8.3,0,0,0-7-3.7,9,9,0,0,0-6.9,3c-1.8,2-2.8,4.9-2.8,8.7a13.09,13.09,0,0,0,2.1,7.6,8.4,8.4,0,0,0,7.3,3.9,8.13,8.13,0,0,0,6.9-3.7v3.3a9,9,0,0,1-.3,2.8,3.09,3.09,0,0,1-1.2,1.5,7,7,0,0,1-3.6.7,4.91,4.91,0,0,1-2.7-.6,2.23,2.23,0,0,1-.8-1.6l-6.9-.8v.7a6.2,6.2,0,0,0,2.4,5c1.6,1.3,4.4,2,8.3,2a17.79,17.79,0,0,0,5.1-.6,7.08,7.08,0,0,0,3.2-1.8,8.59,8.59,0,0,0,1.9-3.1,21.24,21.24,0,0,0,.7-6V20.2h-5.7Zm-1.8,13A5,5,0,0,1,308,38a4.55,4.55,0,0,1-3.5-1.7,8.4,8.4,0,0,1-1.4-5.3,8,8,0,0,1,1.4-5.1,4.75,4.75,0,0,1,3.6-1.7,4.8,4.8,0,0,1,3.7,1.7c1,1.1,1.5,2.9,1.5,5.2S312.8,35.2,311.8,36.3Zm54.9.1a6.29,6.29,0,0,1-4.4,1.6,6.89,6.89,0,0,1-5.6-2.5c-1.4-1.7-2.2-4.5-2.2-8.5,0-3.7.7-6.4,2.2-8.1a7.23,7.23,0,0,1,5.7-2.5,6.93,6.93,0,0,1,4.3,1.4,6.55,6.55,0,0,1,2.4,3.9l6.3-1.5a12.93,12.93,0,0,0-3.2-5.8,13.1,13.1,0,0,0-9.4-3.4,13.94,13.94,0,0,0-10.7,4.3c-2.7,2.9-4.1,6.9-4.1,12.2,0,4.9,1.4,8.8,4.1,11.7a13.94,13.94,0,0,0,10.4,4.3,13.32,13.32,0,0,0,8.4-2.5,14.31,14.31,0,0,0,4.8-7.6l-6.2-1.9A11.51,11.51,0,0,1,366.7,36.4Zm13.9,6.5h6.1V20.2h-6.1Zm0-25.8h6.1V11.5h-6.1Z"/><path fill="#fff" d="M34.5,54.5c4-4.7,8.3-9.5,12.1-14.1H39.2L25.4,55.8V5.8A46.54,46.54,0,0,0,19,9.9V77.1h6.4v-13c.8-.9,4.1-4.3,4.8-5.2,3,5.2,7.6,13.4,10.3,18.2H48C43.7,70,38.7,61.4,34.5,54.5Z"/><path fill="#fff" d="M62.6,72.5c-5.5,0-8.6-4.6-8.6-13.9,0-7.9,2.6-13.5,8.7-13.5,4.9,0,7,3.6,7.6,7.6h6.5c-.4-5.9-4.2-13-13.9-13-10.1,0-15.4,8.3-15.4,19.1,0,12.2,5,19.1,15,19.1,8.7,0,13-5.4,14.4-12.6H70.5C69.2,69.4,67.3,72.5,62.6,72.5Z"/><path fill="#ccd5dd" d="M106.7,5.1a.47.47,0,0,0-.5.5V90.4a.5.5,0,0,0,1,0V5.6A.47.47,0,0,0,106.7,5.1Z" /><path fill="#2c3e46" d="M237.9,55.5a5.2,5.2,0,0,0-4.2,5.1c0,2.6,1.6,4.2,5.1,5.1,5.1,1.2,6,1.8,6.2,4.1a3.9,3.9,0,0,1-3.1,3.9,8.12,8.12,0,0,1-3.8,0,5.66,5.66,0,0,1-3.2-3.8c-.2-.7-.2-.8-.7-.7-1.3.2-1.2.2-1.1.8a9.08,9.08,0,0,0,1.7,3.4c2.6,2.8,8,2.9,10.5.2a4.73,4.73,0,0,0,1.4-3.9,5.07,5.07,0,0,0-.3-2.2c-.8-1.5-2.3-2.3-6-3.3-2.6-.7-3.6-1.1-4.1-1.9-1.3-1.9-.5-4.2,1.8-5.1a4.4,4.4,0,0,1,2.4-.3,4,4,0,0,1,3.2,1.3,6,6,0,0,1,1,2.5c0,.2.2.2.8.1a4.4,4.4,0,0,1,.9-.1,5.1,5.1,0,0,0-.1-.9,5.23,5.23,0,0,0-3.5-4.1A11.77,11.77,0,0,0,237.9,55.5ZM117.1,65.4v9.8h11V73.6H119v-18h-2v9.8Zm70.6-8.6V58h1.6V55.6h-1.8v1.2Zm78.9,8.6v9.8h1.8V55.6h-1.8ZM297,56.8V58h1.6V55.6H297Zm-7.3.2-.6.5-.1,1.7-.1,1.7h-2v1.2h2v5.5c0,5.4,0,5.5.4,6.2a2.27,2.27,0,0,0,2.3,1.3c1.3,0,1.8-.1,1.8-.5,0-.9-.1-1-1.2-1-1.7,0-1.6.3-1.6-6V62.2h2.8V61h-2.6V58.8a6.6,6.6,0,0,0-.2-2.2C290.3,56.5,290,56.8,289.7,57ZM135.1,61c-2.6.9-4.2,3.6-4.2,7.2,0,3.3,1.2,5.5,3.4,6.7a6.16,6.16,0,0,0,7.2-1.2,5.15,5.15,0,0,0,1.1-2.1c-.1-.1-.4-.1-.8-.2-.7-.1-.7-.1-1.1.7a3.94,3.94,0,0,1-3.7,2,3.89,3.89,0,0,1-3.2-1.6,7.34,7.34,0,0,1-1.2-3.4v-.6H143l-.1-1c-.3-3.3-1.4-5.1-3.4-6.1a6.66,6.66,0,0,0-2.4-.5A4.16,4.16,0,0,0,135.1,61ZM150,61a5,5,0,0,0-3,3c-.2.7-.1.8.8.8.4,0,.5-.1.8-.7.6-1.4,1.7-2,3.6-2,2.2,0,3,.8,3.2,3,.1,1.1.1,1.1-.4,1.3a23.3,23.3,0,0,1-2.5.6c-3.3.6-4.3,1-5.2,1.9a3.94,3.94,0,0,0,3.5,6.5,4.72,4.72,0,0,0,3.9-1.5l.9-.8.2,1.1.2,1.1h.9c.9,0,1-.1.7-.8a51.64,51.64,0,0,1-.3-5.5,54.88,54.88,0,0,0-.3-5.6,3.57,3.57,0,0,0-1.9-2.1,5.39,5.39,0,0,0-2.6-.5A7.25,7.25,0,0,0,150,61Zm16-.1a3.65,3.65,0,0,0-1.7,1.6l-.5.7V61h-1.6V75H164l.1-4.8c.1-4.6.1-4.9.4-5.7.7-1.7,2-2.5,3.5-2.1l.8.2c.1,0,.3-.3.5-.7l.3-.8-.6-.3A9.7,9.7,0,0,0,166,60.9Zm10.8,0a4.52,4.52,0,0,0-2.4,1.8l-.4.5V61h-1.6V75H174l.1-4.8a25.35,25.35,0,0,1,.3-5.5,5.07,5.07,0,0,1,2.5-2.5c1.8-.5,3.5,0,4.2,1.3l.4.7V75h1.8l-.1-5.5c0-3.5-.1-5.7-.3-6.1a4.27,4.27,0,0,0-1.9-2.3,3.75,3.75,0,0,0-2.3-.5C177.8,60.8,177,60.8,176.8,60.9Zm21.2.3a4.84,4.84,0,0,0-1.6,1.3l-.8.8V61.1h-1.4v14h1.6l.1-4.9c0-4.6.1-4.9.4-5.7a3.93,3.93,0,0,1,3.7-2.4,2.75,2.75,0,0,1,2.8,1.4l.4.8V75.1h1.6V69.4c0-5.5-.1-5.7-.4-6.4-.8-1.6-1.9-2.2-4-2.3A3.91,3.91,0,0,0,198,61.2Zm15-.3c-2.5.8-4.2,3.7-4.1,7.1,0,3.8,1.5,6.2,4.4,7.1a5,5,0,0,0,5.1-1.3l.6-.8v1.2c0,2.7-.6,4-2,4.7a3.93,3.93,0,0,1-2.3.5c-1.8,0-2.6-.4-3.1-1.5-.3-.6-.4-.7-.9-.8-1-.2-1-.2-.9.4.4,2,2.3,3.2,5,3.2s4.4-.9,5.3-3c.6-1.4.7-2.9.7-10V61h-1.6v2.2l-.7-.8a4.77,4.77,0,0,0-3.6-1.7C214.1,60.8,213.3,60.8,213,60.9Zm41.4.1c-2.6.8-4.2,3.5-4.2,7.1,0,4.5,2.1,7.2,5.9,7.4,3.3.2,5.7-1.8,6.3-5.4a17.73,17.73,0,0,0-.2-5.2,6.29,6.29,0,0,0-3.9-3.9A8.56,8.56,0,0,0,254.4,61Zm52.6-.1a6.9,6.9,0,0,0-2.8,2,9.57,9.57,0,0,0-1.4,6.6c.4,2.7,1.3,4.3,3.3,5.3a4.48,4.48,0,0,0,2.9.6,4.55,4.55,0,0,0,2.6-.4c2.6-1.2,4-4.5,3.5-8.4-.3-2.5-1.4-4.3-3.3-5.2a4.76,4.76,0,0,0-2.6-.6A10.45,10.45,0,0,0,307,60.9Zm15.8.3a4,4,0,0,0-1.6,1.3l-.7.8V61.1h-1.6v14h1.8V70.4c0-5.4.1-5.9,1.1-7a3.8,3.8,0,0,1,3-1.3,2.7,2.7,0,0,1,2.3.8c.9.9,1,1.1,1,6.9l.1,5.3h1.6V69.8c0-6.2-.1-6.6-1.2-7.8A5.53,5.53,0,0,0,322.8,61.2Zm13.8-.2a4.71,4.71,0,0,0-2.3,2.1,4.15,4.15,0,0,0,0,3.1c.6,1.3,1.6,1.8,5.2,2.6,1.7.4,2.4.8,2.7,1.8.7,1.9-.8,3.5-3.4,3.4a3.1,3.1,0,0,1-3.3-2.3l-.2-.6-.7.1-.8.2c-.2.2.3,1.3.8,2,1.4,1.9,4.8,2.6,7.2,1.4a3.79,3.79,0,0,0,2.3-3.7c0-2.3-1.1-3.3-5.1-4.2-.9-.2-1.9-.5-2.2-.6a2.11,2.11,0,0,1-.7-3.1,4.26,4.26,0,0,1,4.5-.7,2.61,2.61,0,0,1,1.4,1.6c0,.2.3.2,1.1.1.6-.1.6-.4.1-1.3a4.82,4.82,0,0,0-2.5-1.9A9.44,9.44,0,0,0,336.6,61ZM187.7,68.1v7h1.8v-14h-1.8Zm84.9-1.6c.1,6.1.1,6.5,1.2,7.6a4,4,0,0,0,3.5,1.3c1.4,0,1.6,0,2.4-.5a8.78,8.78,0,0,0,1.5-1.2l.6-.7v2.2h1.6v-14h-1.6l-.1,4.7c-.1,5.2-.2,5.8-1.2,7-1.5,1.8-4.8,1.8-5.8-.1l-.4-.7V61.3h-1.8ZM297,68.1v7h1.8v-14H297ZM139,62.6a5.06,5.06,0,0,1,2.3,3.9V67h-8.6l.1-.8a6,6,0,0,1,1.4-3A4.39,4.39,0,0,1,139,62.6Zm77.6-.1a4.82,4.82,0,0,1,2.1,2.5,7,7,0,0,1,.4,3.1c0,2,0,2.2-.5,3.1a4,4,0,0,1-3.9,2.6c-2.8,0-4.5-3-4.1-7.2a5.68,5.68,0,0,1,1.8-3.7A4.21,4.21,0,0,1,216.6,62.5Zm41.6,0a4.89,4.89,0,0,1,2.3,2.9,11,11,0,0,1,.1,5.1,4.56,4.56,0,0,1-5.8,3.4,4.78,4.78,0,0,1-2.5-2.7,12.18,12.18,0,0,1-.2-5.7,5.93,5.93,0,0,1,2.1-2.9A5.06,5.06,0,0,1,258.2,62.5Zm52.7.1a4.26,4.26,0,0,1,2,2.6,11.74,11.74,0,0,1,.1,5.6,4.15,4.15,0,0,1-4,3.2c-2.1.1-3.4-.8-4.2-3a11.74,11.74,0,0,1-.1-5.6A4.31,4.31,0,0,1,310.9,62.6ZM155.5,69.1a8.44,8.44,0,0,1-.2,1.9,4.67,4.67,0,0,1-4.3,3.1c-1.8,0-2.8-.9-2.8-2.6s.8-2.3,4-3c1.1-.3,2.3-.5,2.6-.6a3.93,3.93,0,0,1,.6-.2C155.5,67.7,155.5,68.3,155.5,69.1Z"/></svg>