<svg xmlns="http://www.w3.org/2000/svg" viewBox="15 0 24 54"><path fill="#808080" d="M33.26,25.367v-4.711c-0.356-3.296-3.191-5.76-6.504-5.654c-3.374-0.055-6.215,2.512-6.5,5.875v4.49H17v13.635h20V25.367H33.26zM22.368,21.044c0.208-2.221,2.108-3.897,4.337-3.825c2.177-0.156,4.089,1.432,4.336,3.6v4.545h-8.673V21.044zM28.06,33.238l0.758,1.718h-3.471l0.542-1.774c-0.696-0.427-1.125-1.179-1.139-1.995c-0.008-1.239,0.984-2.254,2.223-2.273c1.229,0.042,2.208,1.043,2.222,2.273c0.047,0.846-0.395,1.643-1.138,2.051H28.06z"/></svg>
